<svg version="1.1" xmlns="http://www.w3.org/2000/svg" xmlns:xlink="http://www.w3.org/1999/xlink" width="36px" height="36px" viewBox="0,0,256,256"><g fill="#ffffff" fill-rule="nonzero" stroke="none" stroke-width="1" stroke-linecap="butt" stroke-linejoin="miter" stroke-miterlimit="10" stroke-dasharray="" stroke-dashoffset="0" font-family="none" font-weight="none" font-size="none" text-anchor="none" style="mix-blend-mode: normal"><g transform="translate(-15.86194,0) scale(7.11111,7.11111)"><path d="M24.71,20.07c0.76294,-0.74768 1.06559,-1.84749 0.79258,-2.88024c-0.273,-1.03275 -1.07959,-1.83934 -2.11234,-2.11234c-1.03275,-0.273 -2.13256,0.02964 -2.88024,0.79258c-1.13989,1.16315 -1.13048,3.02731 0.02111,4.17889c1.15158,1.15158 3.01574,1.161 4.17889,0.02111M12.448,20.07c0.76294,-0.74768 1.06559,-1.84749 0.79258,-2.88024c-0.273,-1.03275 -1.07959,-1.83934 -2.11234,-2.11234c-1.03275,-0.273 -2.13256,0.02964 -2.88024,0.79258c-1.13989,1.16315 -1.13048,3.02731 0.02111,4.17889c1.15158,1.15158 3.01574,1.161 4.17889,0.02111M18.621,9.76c-0.74684,-0.7651 -1.84738,-1.06955 -2.88125,-0.79706c-1.03388,0.27248 -1.8414,1.07981 -2.11413,2.11362c-0.27273,1.03381 0.03146,2.13442 0.79638,2.88144c1.1632,1.13599 3.02374,1.12509 4.17356,-0.02445c1.14981,-1.14954 1.16116,-3.01008 0.02544,-4.17355M18.621,22.022c-0.74684,-0.7651 -1.84738,-1.06955 -2.88125,-0.79706c-1.03388,0.27248 -1.8414,1.07981 -2.11413,2.11362c-0.27273,1.03381 0.03146,2.13442 0.79638,2.88144c1.1632,1.13599 3.02374,1.12509 4.17356,-0.02445c1.14981,-1.14954 1.16116,-3.01008 0.02544,-4.17355M17.077,17.393c-0.33027,-0.33054 -0.86596,-0.33077 -1.1965,-0.0005c-0.33054,0.33027 -0.33077,0.86596 -0.0005,1.1965c0.33027,0.33054 0.86596,0.33077 1.1965,0.0005c0.33054,-0.33027 0.33077,-0.86596 0.0005,-1.1965M35.137,16.749c-3.33,6.913 -8.165,9.928 -11.635,11.24c-2.57,0.971 -4.762,1.178 -5.949,1.208c-0.34967,0.03377 -0.70071,0.05145 -1.052,0.053c-6.214,0 -11.251,-5.037 -11.251,-11.25c0,-6.213 5.037,-11.25 11.25,-11.25c6.214,0 11.25,5.037 11.25,11.25c0.00294,2.56772 -0.87729,5.05834 -2.493,7.054c2.832,-1.612 5.844,-4.382 8.138,-9.143c0.24789,-0.45024 0.80444,-0.62825 1.2676,-0.40544c0.46317,0.22281 0.67145,0.76875 0.4744,1.24344"></path></g></g></svg>