<svg version="1.1" xmlns="http://www.w3.org/2000/svg" xmlns:xlink="http://www.w3.org/1999/xlink" width="36px" height="36px" viewBox="0,0,256,256"><g fill="#ffffff" fill-rule="nonzero" stroke="none" stroke-width="1" stroke-linecap="butt" stroke-linejoin="miter" stroke-miterlimit="10" stroke-dasharray="" stroke-dashoffset="0" font-family="none" font-weight="none" font-size="none" text-anchor="none" style="mix-blend-mode: normal"><g transform="scale(7.11111,7.11111)"><path d="M27.85,15.1h-6.95v-6.95c0,-1.60163 -1.29837,-2.9 -2.9,-2.9c-1.60163,0 -2.9,1.29837 -2.9,2.9v6.95h-6.95c-1.60163,0 -2.9,1.29837 -2.9,2.9c0,1.60163 1.29837,2.9 2.9,2.9h6.95v6.95c0,1.60163 1.29837,2.9 2.9,2.9c1.60163,0 2.9,-1.29837 2.9,-2.9v-6.95h6.95c1.60163,0 2.9,-1.29837 2.9,-2.9c0,-1.60163 -1.29837,-2.9 -2.9,-2.9z"></path></g></g></svg>