<svg version="1.1" xmlns="http://www.w3.org/2000/svg" xmlns:xlink="http://www.w3.org/1999/xlink" width="36px" height="36px" viewBox="0,0,256,256"><g fill="#ffffff" fill-rule="nonzero" stroke="none" stroke-width="1" stroke-linecap="butt" stroke-linejoin="miter" stroke-miterlimit="10" stroke-dasharray="" stroke-dashoffset="0" font-family="none" font-weight="none" font-size="none" text-anchor="none" style="mix-blend-mode: normal"><g transform="translate(0.35885,2.24863) scale(7.11111,7.11111)"><path d="M21.866,24.337c-3.933,2.762 -9.398,2.386 -12.914,-1.13c-3.936,-3.936 -3.936,-10.318 0,-14.255c3.937,-3.936 10.32,-3.936 14.256,0c3.327,3.327 3.842,8.402 1.545,12.27l4.56,4.558c0.37525,0.3751 0.58607,0.88393 0.58607,1.4145c0,0.53057 -0.21082,1.0394 -0.58607,1.4145l-0.174,0.173c-0.781,0.78076 -2.047,0.78076 -2.828,0zM16.08,22.977c3.80911,0 6.897,-3.08789 6.897,-6.897c0,-3.80911 -3.08789,-6.897 -6.897,-6.897c-3.80911,0 -6.897,3.08789 -6.897,6.897c0,3.80911 3.08789,6.897 6.897,6.897z"></path></g></g></svg>