<svg version="1.1" xmlns="http://www.w3.org/2000/svg" xmlns:xlink="http://www.w3.org/1999/xlink" width="36px" height="36px" viewBox="0,0,256,256"><g fill="#ffffff" fill-rule="nonzero" stroke="none" stroke-width="1" stroke-linecap="butt" stroke-linejoin="miter" stroke-miterlimit="10" stroke-dasharray="" stroke-dashoffset="0" font-family="none" font-weight="none" font-size="none" text-anchor="none" style="mix-blend-mode: normal"><g transform="translate(0.224,0.00172) scale(7.11111,7.11111)"><path d="M18.84,11.965h6.722c2.20914,0 4,1.79086 4,4v10.035c0,2.20914 -1.79086,4 -4,4h-15.187c-2.20914,0 -4,-1.79086 -4,-4v-10.035c0,-2.20914 1.79086,-4 4,-4h6.211l-3.981,-3.981c-0.45398,-0.4537 -0.4542,-1.18952 -0.0005,-1.6435c0.4537,-0.45398 1.18952,-0.4542 1.6435,-0.0005l3.465,3.465l3.464,-3.465c0.45398,-0.45398 1.19002,-0.45398 1.644,0c0.45398,0.45398 0.45398,1.19002 0,1.644l-3.982,3.981zM25.268,19.695c0.94883,0 1.718,-0.76917 1.718,-1.718c0,-0.94883 -0.76917,-1.718 -1.718,-1.718c-0.94883,0 -1.718,0.76917 -1.718,1.718c0,0.94883 0.76917,1.718 1.718,1.718zM25.268,25.706c0.62348,0.01505 1.20615,-0.30898 1.52232,-0.84656c0.31617,-0.53758 0.31617,-1.20429 0,-1.74188c-0.31617,-0.53758 -0.89884,-0.86161 -1.52232,-0.84656c-0.93241,0.0225 -1.67655,0.78482 -1.67655,1.7175c0,0.93268 0.74415,1.695 1.67655,1.7175z"></path></g></g></svg>